<?xml version="1.0" standalone="no"?>
<!DOCTYPE svg PUBLIC "-//W3C//DTD SVG 20010904//EN"
 "http://www.w3.org/TR/2001/REC-SVG-20010904/DTD/svg10.dtd">
<svg version="1.0" xmlns="http://www.w3.org/2000/svg"
 width="989.000000pt" height="1280.000000pt" viewBox="0 0 989.000000 1280.000000"
 preserveAspectRatio="xMidYMid meet">
<metadata>
Created by potrace 1.15, written by Peter Selinger 2001-2017
</metadata>
<g transform="translate(0.000000,1280.000000) scale(0.100000,-0.100000)"
fill="#000000" stroke="none">
<path d="M3834 12456 c-11 -8 -43 -23 -70 -34 -28 -10 -79 -38 -115 -63 -35
-24 -89 -56 -120 -70 -105 -50 -226 -178 -270 -285 -16 -38 -33 -60 -56 -74
-18 -11 -33 -26 -33 -33 0 -8 -8 -17 -19 -20 -25 -6 -36 -85 -15 -108 14 -15
13 -19 -6 -37 -17 -16 -22 -34 -25 -100 l-4 -80 -49 -47 c-28 -25 -52 -56 -55
-68 -6 -21 -5 -21 8 -3 13 17 14 15 8 -20 -3 -22 -16 -62 -29 -91 -25 -54 -33
-91 -13 -63 8 12 9 11 5 -5 -13 -54 -20 -143 -20 -273 -1 -115 -4 -145 -16
-152 -12 -8 -12 -10 -1 -10 11 0 11 -3 0 -17 -8 -9 -9 -14 -3 -10 12 7 27
-107 26 -193 0 -32 2 -39 8 -25 l8 20 7 -20 c3 -11 22 -51 42 -90 32 -64 33
-68 9 -42 -14 15 -26 24 -26 18 0 -5 5 -13 11 -16 5 -4 8 -12 6 -18 -2 -7 2
-20 10 -29 26 -29 10 -41 -22 -17 -17 12 -6 -1 23 -29 28 -28 52 -56 52 -62 0
-6 -4 -8 -10 -5 -5 3 -10 1 -10 -4 0 -6 7 -11 15 -11 8 0 15 -6 15 -13 0 -7
15 -32 34 -54 37 -42 39 -43 133 -27 65 10 74 -2 57 -80 -19 -91 -46 -157 -77
-188 -15 -15 -27 -34 -27 -43 0 -10 -9 -15 -26 -15 -14 0 -39 -11 -56 -25 -36
-31 -39 -31 -163 0 -185 47 -348 44 -542 -11 -90 -26 -93 -26 -162 -10 -179
41 -302 30 -481 -41 -163 -64 -277 -125 -340 -181 -30 -27 -103 -81 -161 -120
-105 -71 -219 -178 -219 -205 0 -20 -70 -98 -120 -132 -51 -35 -38 -44 24 -16
l45 19 73 -91 c87 -110 137 -188 218 -341 52 -97 63 -128 80 -222 20 -109 20
-109 0 -239 -30 -200 -96 -479 -124 -528 -38 -66 -88 -247 -68 -247 5 0 17 18
27 40 l18 39 48 -25 c27 -13 77 -27 116 -32 67 -7 67 -7 109 -62 36 -48 44
-66 58 -147 11 -59 48 -179 102 -326 l85 -232 24 -220 c20 -183 28 -230 50
-280 15 -33 40 -109 55 -170 61 -234 80 -300 105 -366 24 -62 40 -87 50 -78 2
2 -7 72 -20 154 -12 83 -26 175 -29 205 l-7 55 59 60 c32 33 90 86 130 118
l71 58 70 -7 71 -7 0 -61 c0 -34 -5 -67 -11 -73 -7 -7 -13 -27 -15 -45 -14
-134 -14 -131 1 -112 13 17 14 12 15 -43 0 -37 -4 -63 -10 -63 -7 0 -7 -6 0
-19 14 -27 13 -54 -2 -45 -7 5 -8 3 -2 -7 14 -24 5 -208 -13 -238 -14 -24 -14
-24 1 -7 14 17 15 11 13 -80 -2 -57 -9 -109 -16 -123 -11 -19 -11 -28 0 -47 7
-13 10 -27 6 -30 -3 -4 -2 -15 4 -25 7 -14 5 -26 -7 -44 -14 -21 -14 -28 -3
-42 11 -12 14 -52 14 -157 -1 -208 -3 -215 -49 -207 -4 1 -14 -4 -22 -10 -11
-9 -28 -6 -79 16 -36 15 -71 25 -79 22 -21 -8 -39 -79 -23 -89 6 -4 -44 -8
-113 -8 -74 0 -150 -6 -185 -15 -38 -9 -114 -14 -206 -15 -200 0 -269 -8 -269
-30 0 -21 31 -50 53 -50 9 0 18 -4 21 -8 3 -5 -65 -26 -152 -48 -144 -36 -157
-41 -154 -60 2 -19 -4 -22 -48 -28 -78 -10 -81 -13 -62 -46 18 -31 50 -50 85
-50 13 0 30 -9 39 -19 25 -29 89 -34 223 -16 209 28 363 35 425 19 36 -9 76
-12 117 -8 58 6 123 -7 123 -25 0 -14 -140 -81 -191 -92 -95 -20 -229 -102
-229 -140 0 -15 21 -53 34 -61 34 -23 157 0 263 49 42 19 117 43 167 54 216
43 349 86 429 136 l38 24 74 -36 c40 -19 84 -35 97 -35 14 0 46 19 77 45 29
25 77 61 106 80 52 35 61 48 86 129 7 25 38 67 84 115 39 42 80 90 90 108 l18
31 -44 87 -44 88 -5 306 c-6 288 -8 337 -14 231 -4 -75 -6 -81 -17 -74 -6 3
-9 15 -6 25 6 22 1 24 -16 7 -7 -7 -12 -33 -11 -57 0 -33 -5 -50 -23 -69 -13
-14 -23 -29 -23 -34 0 -4 -12 -26 -26 -48 -15 -22 -24 -43 -21 -47 4 -3 9 2
13 11 9 23 24 20 24 -5 0 -11 11 -37 25 -57 14 -20 25 -32 25 -26 0 6 -9 23
-21 38 -11 14 -17 31 -14 36 11 18 34 -8 47 -52 8 -26 14 -35 20 -26 5 8 8 2
8 -18 0 -16 -5 -35 -10 -40 -12 -12 -2 -47 11 -38 5 3 9 -3 9 -13 0 -10 3 -29
6 -43 5 -21 4 -22 -6 -10 -10 13 -11 12 -6 -3 3 -10 6 -23 6 -28 0 -6 5 -7 11
-3 8 5 10 -3 7 -25 -3 -24 -1 -31 9 -27 12 5 17 -5 14 -31 -1 -6 3 -15 9 -18
7 -4 -4 -20 -27 -41 -35 -31 -72 -49 -45 -22 7 7 12 17 12 22 0 6 -7 0 -16
-12 -8 -12 -13 -26 -10 -31 3 -5 -1 -14 -8 -20 -16 -14 -21 -8 -30 36 -4 18
-3 34 3 38 7 4 11 -3 11 -17 1 -21 2 -21 11 -5 7 13 6 21 -4 32 -13 13 -16 12
-22 -3 -6 -16 -8 -16 -21 2 -8 11 -14 15 -14 10 0 -6 3 -14 7 -18 5 -4 8 -11
9 -14 0 -4 5 -25 12 -46 12 -43 8 -60 -14 -52 -8 3 -14 0 -14 -7 0 -11 -86
-57 -106 -57 -13 0 21 32 42 40 17 7 20 14 16 35 l-5 27 -12 -28 c-16 -40 -41
-59 -51 -42 -6 9 -10 6 -14 -12 -7 -31 -66 -52 -81 -29 -6 10 -9 10 -9 2 0 -7
-5 -13 -11 -13 -6 0 -8 9 -3 23 9 29 8 29 38 31 18 1 26 7 26 19 0 9 -4 17
-10 17 -5 0 -10 -4 -10 -10 0 -5 -7 -10 -16 -10 -12 0 -14 8 -10 32 5 33 32
62 47 52 15 -9 10 27 -6 43 -14 14 -15 13 -9 -11 5 -20 3 -26 -11 -26 -13 0
-16 6 -11 23 3 12 6 30 6 40 0 9 7 17 15 17 8 0 20 10 26 22 11 21 12 21 25 3
16 -21 18 -4 4 30 -7 18 -9 18 -15 3 -4 -9 -18 -24 -31 -33 -23 -15 -24 -14
-24 5 0 12 5 18 10 15 6 -3 10 1 10 10 0 9 -4 13 -10 10 -15 -9 -12 8 6 33 12
18 19 21 30 11 7 -6 11 -15 9 -20 -5 -7 45 -2 54 6 2 3 -2 11 -9 20 -7 8 -10
24 -7 35 6 24 -5 26 -23 5 -9 -10 -9 -15 -1 -15 6 0 11 -9 11 -20 0 -31 -16
-24 -40 17 -21 36 -20 43 15 57 6 2 2 12 -7 21 -16 17 -17 17 -11 -3 4 -16 1
-22 -11 -22 -15 0 -16 8 -10 63 7 60 18 82 37 70 6 -4 7 6 3 23 -4 16 -11 30
-15 32 -5 1 -4 22 1 45 4 23 11 60 14 82 7 49 14 61 25 44 7 -11 9 -10 9 3 0
9 -6 18 -12 21 -10 3 -10 9 -1 28 6 13 15 43 18 67 4 23 11 42 16 42 5 0 7 11
3 24 -3 13 -1 27 5 30 6 4 11 18 11 32 0 13 3 24 8 24 4 0 8 19 9 41 1 29 9
49 27 68 14 15 26 34 26 42 -1 8 -7 3 -15 -11 -13 -23 -14 -24 -15 -4 0 12 9
33 20 47 22 27 26 42 10 32 -13 -8 -13 7 3 43 10 25 14 28 26 15 11 -12 11
-20 1 -41 -12 -27 -12 -27 9 -8 21 19 25 16 22 -16 -1 -10 4 -18 13 -18 9 0
16 -9 16 -20 0 -11 -5 -20 -11 -20 -6 0 -3 -7 5 -16 18 -18 20 -30 6 -39 -5
-3 -10 -11 -10 -18 0 -6 7 -1 16 12 24 34 33 11 30 -80 -2 -43 1 -76 6 -73 4
3 8 31 8 62 0 31 4 52 8 46 5 -5 66 -139 136 -299 116 -262 134 -297 196 -375
37 -47 81 -97 97 -112 30 -29 327 -150 398 -162 22 -4 78 -20 125 -36 99 -33
176 -48 166 -32 -4 6 -65 49 -135 96 -153 101 -231 164 -368 300 l-103 101
-65 148 -66 148 -30 211 c-28 196 -33 215 -63 262 -18 28 -79 141 -135 250
l-103 199 13 124 c11 118 8 347 -7 566 -4 54 -3 87 3 87 25 0 356 -396 463
-555 65 -96 92 -153 139 -289 44 -127 124 -276 129 -240 2 11 -6 41 -17 67
-11 26 -34 104 -51 174 -31 122 -31 128 -15 161 22 47 97 142 112 142 18 0 43
-41 43 -73 0 -16 7 -30 16 -34 8 -3 13 -12 10 -20 -4 -9 -2 -11 6 -7 7 5 9 2
5 -9 -4 -11 -2 -14 9 -10 7 3 14 0 14 -7 0 -6 5 -8 10 -5 6 3 10 -2 10 -13 0
-10 11 -47 25 -82 14 -36 23 -71 20 -78 -2 -7 0 -10 5 -7 6 3 10 0 10 -8 0 -8
16 -50 35 -93 20 -44 41 -90 47 -104 6 -14 19 -42 30 -62 11 -21 15 -38 9 -38
-16 0 -52 67 -45 86 4 14 3 15 -3 6 -14 -19 -34 9 -38 53 -3 33 -44 114 -45
88 0 -6 4 -14 9 -17 5 -3 9 -22 8 -42 l-1 -35 -18 23 c-20 27 -24 53 -5 42 10
-6 10 -4 0 7 -7 7 -13 27 -13 44 0 17 -7 40 -15 51 -14 19 -14 19 -9 -2 3 -12
-1 -26 -10 -33 -13 -11 -14 -17 -2 -45 9 -22 11 -45 6 -72 -6 -31 -8 -33 -9
-11 0 15 -6 27 -12 27 -8 0 -10 -12 -6 -32 3 -18 10 -58 16 -88 10 -59 90
-248 122 -288 10 -14 19 -30 19 -36 1 -6 14 -27 30 -46 17 -19 30 -41 30 -50
0 -8 16 -40 36 -70 20 -30 41 -70 46 -87 5 -18 13 -33 18 -33 13 0 13 -57 1
-65 -6 -3 -14 3 -20 12 -13 22 -14 8 -2 -16 8 -13 3 -24 -19 -44 -20 -19 -30
-23 -34 -15 -3 7 -3 3 0 -9 8 -33 -3 -45 -29 -32 -22 12 -22 12 -3 -9 22 -25
15 -55 -11 -45 -16 6 -17 5 -3 -11 13 -16 12 -20 -3 -31 -9 -7 -17 -16 -17
-20 0 -4 -18 -27 -40 -51 -42 -45 -47 -62 -30 -95 8 -13 7 -25 0 -40 -7 -11
-9 -23 -6 -26 7 -8 143 102 155 126 6 10 29 26 51 35 40 16 41 16 80 -13 39
-28 77 -41 182 -61 47 -9 60 -17 80 -46 12 -19 30 -36 38 -39 30 -10 70 -92
91 -186 25 -115 40 -140 135 -223 90 -79 109 -88 249 -115 119 -23 135 -32
171 -103 27 -54 41 -63 106 -71 25 -4 63 -18 85 -33 44 -30 83 -29 196 6 64
20 68 23 92 71 14 27 48 74 75 104 27 30 67 91 88 137 22 46 64 135 94 198 36
75 64 121 81 132 14 10 46 46 71 81 l46 64 77 12 c108 17 241 63 352 122 52
27 96 48 97 46 2 -2 -2 -48 -8 -102 -8 -74 -17 -110 -35 -138 -27 -42 -53
-134 -53 -187 0 -19 -5 -53 -11 -75 -6 -22 -14 -123 -19 -225 -4 -102 -11
-218 -15 -257 l-8 -73 -54 -25 c-30 -14 -72 -30 -94 -36 -84 -26 -86 -74 -7
-151 27 -26 47 -52 44 -57 -3 -5 -12 -56 -21 -115 -27 -196 -57 -279 -151
-423 -63 -98 -74 -122 -76 -170 -2 -42 29 -76 88 -99 40 -15 46 -15 68 -1 40
27 65 93 76 207 6 58 20 139 30 180 11 41 24 127 30 189 19 202 36 301 53 301
4 0 -4 -83 -19 -193 -8 -59 -15 -158 -14 -220 2 -81 -2 -124 -14 -156 -20 -56
-20 -123 0 -163 26 -51 6 -125 -59 -222 -13 -19 -29 -62 -36 -95 -7 -34 -19
-77 -26 -96 -8 -19 -15 -65 -15 -102 0 -89 -18 -151 -79 -281 -77 -163 -85
-205 -77 -407 14 -357 12 -390 -23 -495 -17 -52 -36 -133 -41 -180 -5 -47 -19
-134 -31 -195 -39 -197 -25 -313 48 -413 68 -93 216 -208 385 -300 245 -133
469 -169 663 -106 106 35 204 126 221 204 3 14 20 68 37 120 27 82 31 109 31
200 0 126 -1 129 -120 447 l-94 253 0 212 c0 135 6 260 16 343 13 106 14 141
5 190 -10 47 -10 67 0 90 8 20 13 117 14 295 2 201 7 277 18 315 8 28 18 84
22 125 9 102 30 190 59 248 13 26 29 82 35 123 5 40 17 103 25 139 9 36 16 86
16 112 0 26 5 69 11 97 l10 49 52 -5 c29 -2 70 -1 92 4 36 8 40 12 37 36 -2
15 -15 39 -29 53 -24 24 -25 30 -21 103 3 54 11 89 24 112 l20 34 90 -1 c146
-1 271 -52 562 -231 176 -108 263 -148 370 -169 159 -31 326 -7 784 111 109
28 204 69 217 94 9 18 -3 61 -17 61 -5 0 -17 20 -26 45 -38 98 -105 126 -411
174 -294 46 -297 47 -364 96 -179 135 -486 578 -561 810 -12 39 -29 82 -36 97
-23 46 -67 289 -55 301 15 15 14 65 -4 123 -31 100 -45 177 -45 245 0 64 4 78
54 177 30 59 91 168 136 242 99 164 211 393 252 515 42 126 50 283 19 404 -11
46 -33 104 -48 130 -62 105 -183 204 -292 237 -68 20 -68 18 -51 119 31 177
49 1050 31 1415 -12 231 -24 288 -81 400 -91 173 -227 285 -406 330 -160 41
-242 22 -405 -93 -217 -152 -326 -270 -433 -469 -26 -47 -57 -93 -70 -101 -39
-26 -137 -200 -145 -260 -4 -30 -27 -90 -53 -142 -67 -132 -193 -421 -250
-570 -27 -71 -87 -256 -134 -410 -46 -154 -86 -286 -89 -292 -3 -9 -11 -10
-27 -4 -28 10 -30 46 -6 80 26 35 23 41 -27 41 -40 0 -92 15 -105 31 -3 3 -14
9 -24 12 -16 6 -17 5 -7 -7 7 -9 22 -18 34 -22 20 -6 20 -7 -4 -20 -28 -16
-89 -18 -89 -4 0 6 -9 10 -20 10 -25 0 -26 17 -2 23 16 5 -8 8 -70 11 -19 1
-37 14 -62 46 -19 25 -53 62 -75 82 -25 24 -44 53 -52 80 -7 24 -16 48 -20 53
-5 6 -9 35 -11 65 -2 30 -7 58 -12 61 -5 4 -5 12 -2 18 5 8 12 7 22 -4 9 -8
21 -15 27 -15 12 0 33 -30 74 -104 28 -50 28 -44 4 36 -37 120 -73 293 -78
379 -5 70 -9 88 -25 98 -17 10 -18 10 -10 -6 11 -20 15 -54 12 -98 l-2 -30
-11 35 c-6 19 -14 37 -18 40 -5 3 -4 37 2 75 6 46 6 72 -1 79 -20 20 -10 29
11 10 l22 -19 -17 33 c-18 35 -13 58 5 32 9 -12 9 -11 4 5 -17 47 -18 58 -7
51 7 -4 12 -1 12 8 0 9 -5 16 -11 16 -7 0 -10 17 -8 44 2 24 1 42 -3 40 -3 -2
-12 11 -18 31 -15 44 -112 123 -190 155 -44 17 -234 139 -228 146 3 2 18 0 34
-7 16 -6 80 -13 143 -15 120 -4 115 -2 239 -76 57 -35 34 -12 -33 32 -36 23
-65 44 -65 47 0 5 130 -64 180 -96 l25 -15 -20 23 -20 23 37 -22 c21 -12 36
-26 33 -30 -3 -5 0 -12 6 -16 8 -4 9 -3 5 4 -4 7 -3 12 2 12 11 0 31 -22 29
-32 -1 -3 2 -10 7 -15 5 -5 6 -3 2 5 -11 18 1 15 35 -10 17 -13 41 -43 53 -68
20 -43 21 -44 24 -17 3 28 4 28 29 11 26 -16 26 -16 20 7 -6 23 -6 24 9 4 15
-19 15 -19 9 10 -4 17 -8 36 -11 43 -2 8 1 10 8 6 8 -5 9 2 5 25 l-7 33 33
-26 c46 -36 60 -50 74 -72 7 -10 4 4 -5 32 -10 28 -25 63 -35 77 -18 27 -11
37 11 15 6 -6 15 -9 18 -5 8 7 -4 25 -60 91 -58 70 -32 70 31 1 31 -33 50 -50
44 -37 -6 12 -9 22 -6 22 4 0 -4 13 -17 28 -13 16 -56 70 -96 120 -87 109
-250 264 -342 327 -37 25 -87 66 -111 90 -24 25 -51 45 -60 45 -23 0 -64 46
-47 53 9 3 7 7 -7 12 -38 12 -49 22 -65 51 -24 44 -39 106 -33 140 5 34 -20
104 -37 104 -6 0 -8 -6 -4 -12 4 -8 3 -9 -2 -5 -10 10 -10 12 -12 85 -2 65
-17 81 -111 117 -98 37 -231 161 -178 166 6 1 23 2 37 4 14 1 45 20 69 42 40
38 43 44 37 77 -6 32 -4 36 13 36 25 0 46 -31 61 -90 19 -76 21 -79 34 -74 7
3 18 16 24 30 7 13 20 24 30 24 23 0 85 21 79 26 -2 3 -26 0 -53 -6 -61 -14
-87 -7 -102 25 -17 38 -15 39 16 7 15 -15 19 -18 10 -7 -25 29 -23 42 2 20 21
-19 96 -30 105 -15 3 5 -13 11 -35 15 -22 4 -38 11 -34 16 3 5 0 9 -5 9 -6 0
-11 8 -11 19 0 14 -6 17 -24 14 -13 -3 -27 1 -31 8 -6 8 -4 10 4 4 7 -4 23 -3
34 3 12 6 30 13 39 16 14 4 16 10 9 29 -9 22 -7 23 22 19 l32 -4 -30 25 c-25
21 -28 27 -16 41 9 11 10 16 2 16 -7 0 -9 9 -5 25 5 22 3 25 -21 25 -23 0 -25
2 -15 15 9 11 9 22 -1 50 -11 31 -11 37 1 45 8 6 11 10 5 11 -5 0 -1 4 10 9
19 8 19 9 -2 9 -13 1 -32 10 -43 21 -21 21 -28 46 -9 34 7 -4 2 6 -10 22 -11
16 -25 43 -30 61 -9 30 -8 31 9 21 10 -7 17 -15 14 -20 -8 -13 54 13 67 28 10
12 6 13 -20 8 -32 -7 -91 11 -91 27 0 5 9 9 20 9 20 0 80 26 80 35 0 4 -36 -1
-81 -11 -25 -5 -26 -2 -58 96 -19 58 -30 112 -27 125 5 21 8 22 58 13 29 -5
72 -7 97 -3 39 6 43 8 26 17 -27 15 -28 15 -21 27 4 6 17 4 34 -6 34 -19 82
-11 82 14 0 16 -1 16 -16 1 -15 -15 -18 -14 -35 3 -25 25 -25 26 16 43 19 8
35 20 35 26 0 7 -3 10 -7 8 -5 -2 -20 -10 -35 -17 -14 -7 -37 -11 -51 -8 -28
8 -190 209 -201 250 -3 15 -11 25 -16 22 -10 -6 -18 22 -45 145 -44 207 -72
271 -161 376 -31 36 -67 64 -125 94 -98 51 -171 62 -245 36 -80 -27 -137 -22
-205 20 -53 33 -69 38 -160 46 -56 5 -113 7 -128 5 -14 -2 1 -5 33 -6 55 -1
58 -2 40 -16 -10 -8 -30 -14 -44 -14 -22 0 -23 1 -5 8 14 6 4 10 -37 14 -32 4
-68 3 -83 -3 -14 -5 -47 -10 -73 -10 -44 1 -46 2 -28 15 27 20 -2 20 -30 1z
m1416 -961 c0 4 7 2 15 -5 8 -7 15 -17 15 -22 0 -7 -5 -6 -13 1 -8 6 -16 9
-18 6 -3 -2 -11 6 -18 18 -13 20 -13 21 2 8 10 -7 17 -10 17 -6z m70 -74 c0
-16 -13 -19 -31 -8 -26 16 -24 25 6 19 14 -2 25 -8 25 -11z m-2281 -725 c1
-15 -2 -16 -14 -6 -16 13 -20 42 -8 54 8 8 21 -20 22 -48z m6 -86 c10 -11 16
-20 13 -20 -3 0 -13 9 -23 20 -10 11 -16 20 -13 20 3 0 13 -9 23 -20z m44 -76
c16 -12 20 -19 12 -27 -7 -7 -17 -5 -31 8 -36 33 -22 47 19 19z m1951 -54 c0
-5 -7 -10 -16 -10 -8 0 -12 5 -9 10 3 6 10 10 16 10 5 0 9 -4 9 -10z m-1947
-138 c39 -74 68 -126 79 -140 6 -7 8 -15 5 -18 -12 -12 -117 161 -117 194 0
21 7 13 33 -36z m197 -3 c0 -6 -4 -7 -10 -4 -5 3 -10 11 -10 16 0 6 5 7 10 4
6 -3 10 -11 10 -16z m1764 -31 c7 -30 -2 -36 -23 -15 -11 10 -12 9 -6 -2 5 -9
4 -12 -3 -7 -16 10 -15 53 1 59 16 6 23 -2 31 -35z m-1855 -8 c29 -36 30 -39
9 -31 -23 8 -68 71 -51 71 5 0 24 -18 42 -40z m1856 -70 c8 -13 -1 -13 -26 0
-10 6 -19 15 -19 21 0 11 35 -5 45 -21z m61 -18 c-4 -3 -14 2 -24 12 -16 18
-16 18 6 6 13 -6 21 -14 18 -18z m-1865 7 c-16 -6 -28 -6 -35 1 -7 7 1 10 25
9 32 0 33 -1 10 -10z m1904 -73 c25 -26 30 -28 33 -13 5 24 19 21 38 -9 14
-21 15 -27 4 -34 -16 -10 -70 8 -70 23 0 8 -3 7 -9 -1 -12 -20 -52 -5 -99 37
-58 53 -54 63 16 44 37 -11 67 -27 87 -47z m103 22 c37 -23 62 -60 43 -66 -6
-2 -8 -8 -5 -14 4 -6 1 -9 -7 -6 -7 2 -17 18 -21 35 -6 22 -18 35 -48 48 -23
10 -44 23 -47 28 -9 15 47 -1 85 -25z m60 -18 c3 -8 -5 -6 -21 6 -15 10 -27
23 -27 28 0 12 43 -18 48 -34z m-31 -99 c10 -16 9 -20 -8 -24 -12 -3 -17 -11
-13 -21 3 -9 1 -16 -5 -16 -9 0 -10 21 -2 73 2 13 16 7 28 -12z m-89 -13 c5
-7 13 -24 17 -38 6 -22 4 -20 -19 9 -14 19 -26 36 -26 38 0 8 19 2 28 -9z
m145 -47 c24 -40 35 -125 16 -119 -17 6 -59 66 -59 84 0 8 7 14 15 14 17 0 20
16 5 25 -5 3 -10 10 -10 16 0 18 16 9 33 -20z m-90 -47 c3 -18 1 -22 -6 -15
-13 13 -18 41 -7 41 4 0 10 -12 13 -26z m122 -156 c7 -16 10 -28 5 -28 -13 0
-80 82 -80 99 0 20 56 -33 75 -71z m-884 -23 c46 -24 167 -104 174 -115 12
-19 -7 -10 -47 22 -22 17 -75 49 -116 70 -42 21 -69 38 -59 38 10 0 31 -7 48
-15z m1094 -133 c-3 -3 -11 0 -18 7 -9 10 -8 11 6 5 10 -3 15 -9 12 -12z m235
-238 c0 -9 -37 15 -51 33 -10 12 -5 11 19 -6 17 -12 32 -24 32 -27z m-663
-153 c12 -28 19 -51 16 -51 -11 0 -111 104 -107 111 2 4 -8 15 -23 24 -16 9
-33 27 -39 40 -10 20 0 16 60 -25 59 -40 75 -57 93 -99z m753 83 c30 -31 50
-55 45 -53 -11 4 -111 109 -104 109 3 0 29 -25 59 -56z m-2 -42 c18 -13 31
-26 28 -29 -3 -3 14 -20 39 -37 41 -30 94 -86 80 -86 -13 0 -134 113 -130 121
3 4 -33 31 -80 59 -47 28 -85 53 -85 56 0 6 110 -56 148 -84z m-163 8 c10 -11
16 -20 13 -20 -3 0 -13 9 -23 20 -10 11 -16 20 -13 20 3 0 13 -9 23 -20z m150
-122 c19 -22 19 -22 -10 2 -48 40 -51 43 -30 32 11 -6 29 -21 40 -34z m118
-34 c32 -26 56 -48 53 -51 -4 -4 -126 86 -126 94 0 10 21 -2 73 -43z m-809
-40 c3 -8 2 -12 -4 -9 -6 3 -10 10 -10 16 0 14 7 11 14 -7z m496 -24 c33 -25
19 -25 -22 0 -18 11 -26 20 -18 20 8 0 26 -9 40 -20z m166 -78 c67 -49 72 -69
7 -23 -35 24 -63 45 -63 47 0 10 21 1 56 -24z m-226 -222 c0 -5 -4 -10 -10
-10 -5 0 -10 5 -10 10 0 6 5 10 10 10 6 0 10 -4 10 -10z m78 -25 c-3 -3 -9 2
-12 12 -6 14 -5 15 5 6 7 -7 10 -15 7 -18z m-53 -35 c3 -5 1 -10 -4 -10 -6 0
-11 5 -11 10 0 6 2 10 4 10 3 0 8 -4 11 -10z m-28 -52 c-3 -8 -6 -5 -6 6 -1
11 2 17 5 13 3 -3 4 -12 1 -19z m33 -34 c0 -8 -5 -12 -10 -9 -6 4 -8 11 -5 16
9 14 15 11 15 -7z m17 -76 c-3 -8 -6 -5 -6 6 -1 11 2 17 5 13 3 -3 4 -12 1
-19z m27 -24 c3 -8 2 -12 -4 -9 -6 3 -10 10 -10 16 0 14 7 11 14 -7z m-37 -16
c-3 -8 -6 -5 -6 6 -1 11 2 17 5 13 3 -3 4 -12 1 -19z m-7 -39 c0 -6 -4 -7 -10
-4 -5 3 -10 11 -10 16 0 6 5 7 10 4 6 -3 10 -11 10 -16z m-20 -35 c0 -8 -4
-12 -10 -9 -5 3 -10 10 -10 16 0 5 5 9 10 9 6 0 10 -7 10 -16z m-13 -56 c-3
-8 -6 -5 -6 6 -1 11 2 17 5 13 3 -3 4 -12 1 -19z m123 -93 c0 -8 -4 -15 -10
-15 -5 0 -10 7 -10 15 0 8 5 15 10 15 6 0 10 -7 10 -15z m-140 -50 c0 -8 -4
-15 -10 -15 -5 0 -7 7 -4 15 4 8 8 15 10 15 2 0 4 -7 4 -15z m30 -305 c0 -5
-5 -10 -11 -10 -5 0 -7 5 -4 10 3 6 8 10 11 10 2 0 4 -4 4 -10z m-10 -80 c0
-5 -4 -10 -10 -10 -5 0 -10 5 -10 10 0 6 5 10 10 10 6 0 10 -4 10 -10z m45
-59 c3 -5 1 -12 -5 -16 -5 -3 -10 1 -10 9 0 18 6 21 15 7z m-10 -41 c-3 -5
-12 -7 -20 -3 -21 7 -19 13 6 13 11 0 18 -4 14 -10z m538 -166 c-7 -3 -9 -12
-6 -20 3 -8 0 -21 -7 -29 -9 -11 -7 -20 11 -44 21 -28 21 -32 7 -68 -22 -54
-44 -53 -102 6 l-49 50 27 33 c35 42 85 77 111 77 11 0 15 -3 8 -5z m-328
-114 c3 -5 1 -10 -4 -10 -6 0 -11 5 -11 10 0 6 2 10 4 10 3 0 8 -4 11 -10z
m406 -32 c-5 -14 -15 -62 -21 -107 -7 -44 -16 -81 -21 -81 -8 0 -13 15 -10 33
0 4 -6 7 -14 7 -20 0 -20 63 1 80 8 8 27 33 41 57 27 47 40 52 24 11z m-226
-18 c15 -6 7 -8 -27 -7 -27 1 -48 5 -48 10 0 10 50 8 75 -3z m-89 -33 c4 -4
-5 -7 -20 -7 -15 0 -25 4 -22 9 7 10 31 9 42 -2z m80 -14 c-2 -16 -6 -27 -10
-25 -3 1 -12 2 -18 2 -9 0 -8 3 2 10 12 7 12 12 3 21 -10 10 -14 6 -22 -14
-11 -28 -25 -35 -36 -17 -3 6 1 10 9 10 9 0 16 9 16 20 0 15 7 20 29 20 26 0
29 -3 27 -27z m35 4 c-1 -4 -1 -17 -1 -29 0 -12 -3 -18 -7 -14 -11 11 -11 57
0 53 5 -1 8 -6 8 -10z m39 -37 c0 -5 -7 -10 -16 -10 -8 0 -12 5 -9 10 3 6 10
10 16 10 5 0 9 -4 9 -10z m-215 -10 c3 -5 1 -10 -4 -10 -6 0 -11 5 -11 10 0 6
2 10 4 10 3 0 8 -4 11 -10z m35 -25 c0 -16 -6 -25 -15 -25 -8 0 -15 5 -15 10
0 6 5 10 10 10 6 0 9 3 9 8 -2 12 1 22 6 22 3 0 5 -11 5 -25z m90 18 c0 -5 -5
-15 -10 -23 -8 -12 -10 -11 -10 8 0 12 5 22 10 22 6 0 10 -3 10 -7z m32 -32
c-2 -17 -8 -28 -13 -25 -10 6 -12 48 -3 57 13 13 21 -3 16 -32z m78 11 c0 -5
-13 -9 -30 -10 -16 0 -30 4 -30 9 0 5 14 9 30 9 17 0 30 -4 30 -8z m-44 -38
c-3 -9 -6 -21 -6 -27 0 -8 -3 -8 -11 0 -13 13 -5 43 12 43 6 0 8 -7 5 -16z
m30 -11 c-10 -10 -19 5 -10 18 6 11 8 11 12 0 2 -7 1 -15 -2 -18z m-163 1 c9
-9 -4 -35 -14 -28 -5 3 -9 12 -9 20 0 14 12 19 23 8z m37 -19 c0 -8 -4 -15
-10 -15 -5 0 -10 7 -10 15 0 8 5 15 10 15 6 0 10 -7 10 -15z m120 -5 c0 -5 -4
-10 -10 -10 -5 0 -10 5 -10 10 0 6 5 10 10 10 6 0 10 -4 10 -10z m80 -16 c0
-8 -7 -14 -15 -14 -15 0 -21 21 -9 33 10 9 24 -2 24 -19z m-167 -4 c3 -11 1
-20 -4 -20 -5 0 -9 9 -9 20 0 11 2 20 4 20 2 0 6 -9 9 -20z m167 -30 c0 -5 -7
-10 -15 -10 -8 0 -15 -5 -15 -11 0 -6 6 -9 13 -6 19 7 47 -12 47 -31 0 -13 -2
-14 -8 -4 -5 7 -16 10 -25 6 -10 -4 -17 -1 -17 6 0 7 -6 10 -14 7 -9 -4 -13 0
-11 11 2 9 4 23 4 30 1 14 41 17 41 2z m-3110 -79 c-1 -20 2 -67 6 -106 5 -38
8 -87 8 -107 0 -21 4 -38 8 -38 12 0 10 -78 -2 -85 -5 -3 -10 -18 -10 -33 -1
-25 -2 -25 -12 -8 -8 14 -8 24 1 38 7 11 7 18 1 18 -5 0 -9 10 -9 23 1 19 -3
87 -16 300 -4 51 -2 57 11 46 8 -6 14 -28 14 -48z m2976 32 c-10 -10 -19 5
-10 18 6 11 8 11 12 0 2 -7 1 -15 -2 -18z m9 -34 c5 -5 -2 -9 -17 -9 -14 0
-31 7 -39 16 -11 13 -9 14 17 8 16 -3 33 -11 39 -15z m-2954 -476 c11 -30 -8
-266 -21 -258 -4 3 -14 19 -23 37 -12 26 -13 47 -7 93 5 33 12 81 15 108 7 53
20 60 36 20z m990 -123 c23 -19 23 -19 4 -20 -21 0 -45 17 -45 32 0 14 17 9
41 -12z m18 -124 c-1 -32 -6 -56 -12 -56 -5 0 -2 -9 8 -20 19 -21 33 -146 14
-135 -5 4 -9 15 -9 25 0 10 -4 22 -10 25 -5 3 -10 13 -10 22 0 13 3 13 15 3
13 -11 14 -10 9 4 -3 9 -12 16 -18 16 -19 0 -40 68 -26 85 9 11 9 18 -4 30
-19 19 -20 34 -6 71 l11 27 19 -21 c14 -15 19 -34 19 -76z m26 -46 c3 -5 1
-10 -4 -10 -6 0 -11 5 -11 10 0 6 2 10 4 10 3 0 8 -4 11 -10z m-115 -379 c0
-28 -17 3 -23 39 l-6 35 14 -30 c8 -16 14 -37 15 -44z m180 -172 c0 -6 -4 -7
-10 -4 -5 3 -10 11 -10 16 0 6 5 7 10 4 6 -3 10 -11 10 -16z m-6 -35 c3 -8 2
-12 -4 -9 -6 3 -10 10 -10 16 0 14 7 11 14 -7z m91 -364 c3 -5 1 -10 -4 -10
-6 0 -11 5 -11 10 0 6 2 10 4 10 3 0 8 -4 11 -10z m-28 -288 c-34 -77 -143
-194 -159 -169 -18 29 -5 55 62 121 39 38 71 77 71 85 1 9 2 21 4 26 1 6 3 17
4 25 1 8 9 -2 16 -23 11 -30 12 -43 2 -65z m891 -325 c186 -116 329 -161 512
-161 99 0 127 4 200 28 47 16 97 35 112 42 36 18 38 18 38 -9 0 -22 -10 -44
-65 -142 -15 -27 -33 -61 -41 -74 -7 -13 -17 -27 -21 -30 -5 -3 -22 -28 -38
-56 -47 -81 -65 -91 -65 -34 0 19 6 30 21 34 26 9 21 37 -9 50 -13 6 -25 20
-29 33 -3 12 -10 22 -15 22 -5 0 -8 14 -6 30 2 19 -3 34 -12 40 -23 14 -50 12
-50 -4 0 -27 -18 -26 -51 4 -31 27 -69 40 -69 23 0 -12 43 -53 57 -53 7 0 13
-5 13 -12 0 -6 7 -20 17 -30 9 -10 13 -21 9 -25 -4 -5 -12 0 -17 10 -6 9 -19
17 -29 17 -11 0 -25 12 -33 28 -7 15 -20 25 -28 23 -8 -2 -22 -6 -31 -8 -12
-4 -21 3 -27 20 -13 33 -29 43 -37 22 -5 -13 -15 -15 -48 -10 l-41 7 24 -26
c14 -14 30 -26 37 -26 18 0 37 -27 24 -35 -8 -5 -7 -11 2 -23 8 -10 9 -13 1
-9 -6 4 -14 3 -18 -2 -3 -6 -19 -4 -40 5 -19 8 -35 12 -35 8 0 -12 24 -49 36
-57 9 -5 12 -20 8 -46 -3 -22 -1 -42 4 -45 6 -3 8 -15 5 -26 -7 -25 15 -53 35
-45 7 3 27 -4 43 -16 17 -12 34 -17 41 -12 7 4 26 8 43 9 30 2 30 2 8 -15 -14
-12 -18 -22 -13 -31 5 -8 7 -17 4 -21 -6 -10 -65 5 -95 24 -13 8 -44 18 -69
22 -61 10 -68 15 -99 70 -37 68 -62 82 -182 104 -128 24 -200 62 -282 150 -48
53 -57 69 -71 130 -20 89 -21 107 -2 92 8 -6 18 -11 22 -10 22 3 53 -15 58
-34 4 -17 8 -19 17 -10 9 9 19 9 40 -3 25 -12 29 -12 29 0 0 7 -7 19 -15 26
-9 7 -13 21 -9 34 3 14 -1 28 -10 35 -17 15 -22 36 -6 26 15 -9 12 7 -5 29
-19 26 -19 36 2 36 15 0 15 1 0 18 -21 23 -21 32 -1 60 l15 22 80 -72 c44 -40
115 -95 157 -121z m-2428 128 c0 -8 -4 -15 -10 -15 -5 0 -10 7 -10 15 0 8 5
15 10 15 6 0 10 -7 10 -15z m2145 -115 c3 -5 1 -10 -4 -10 -6 0 -11 5 -11 10
0 6 2 10 4 10 3 0 8 -4 11 -10z m-2665 -47 c14 -7 32 -13 40 -14 8 -1 -9 -5
-39 -10 -45 -8 -57 -6 -73 7 -18 17 -24 45 -11 57 3 4 18 -1 32 -10 14 -9 37
-23 51 -30z m837 -96 c-8 -13 -29 -38 -46 -55 -17 -17 -31 -33 -31 -37 0 -3
-11 -21 -24 -38 -13 -18 -32 -54 -42 -81 -15 -40 -27 -55 -73 -84 -31 -19 -66
-46 -78 -59 -21 -22 -61 -33 -48 -14 3 6 -9 7 -30 4 -20 -3 -60 0 -89 7 l-53
13 40 54 c29 39 46 53 59 50 10 -3 21 -1 24 4 3 5 -4 9 -15 9 -12 0 -21 4 -21
9 0 18 43 62 56 57 12 -4 49 1 139 18 25 5 98 49 117 71 12 13 25 22 29 19 5
-3 6 1 3 9 -7 20 37 52 48 34 5 -8 8 -7 8 5 0 16 30 41 39 33 2 -3 -3 -15 -12
-28z m2514 -264 c-10 -17 -10 -16 -11 3 0 23 13 41 18 25 2 -6 -1 -18 -7 -28z
m169 33 c0 -3 -4 -8 -10 -11 -5 -3 -10 -1 -10 4 0 6 5 11 10 11 6 0 10 -2 10
-4z m35 -26 c16 -17 16 -20 3 -15 -9 4 -19 13 -22 21 -7 19 -2 18 19 -6z
m-135 -49 c0 -12 -20 -25 -27 -18 -7 7 6 27 18 27 5 0 9 -4 9 -9z m0 -101 c0
-5 -4 -10 -10 -10 -5 0 -10 5 -10 10 0 6 5 10 10 10 6 0 10 -4 10 -10z m110 0
c0 -5 -4 -10 -10 -10 -5 0 -10 5 -10 10 0 6 5 10 10 10 6 0 10 -4 10 -10z"/>
<path d="M3095 6490 c3 -5 8 -10 11 -10 2 0 4 5 4 10 0 6 -5 10 -11 10 -5 0
-7 -4 -4 -10z"/>
<path d="M3080 6443 c0 -4 5 -15 10 -23 8 -13 10 -13 10 2 0 9 -4 20 -10 23
-5 3 -10 3 -10 -2z"/>
<path d="M4105 6421 c-3 -5 -1 -12 5 -16 5 -3 10 1 10 9 0 18 -6 21 -15 7z"/>
<path d="M2807 4463 c-4 -3 -7 -11 -7 -17 0 -6 5 -5 12 2 6 6 9 14 7 17 -3 3
-9 2 -12 -2z"/>
<path d="M2750 4425 c-8 -9 -8 -15 -2 -15 12 0 26 19 19 26 -2 2 -10 -2 -17
-11z"/>
<path d="M2698 4403 c6 -2 18 -2 25 0 6 3 1 5 -13 5 -14 0 -19 -2 -12 -5z"/>
<path d="M2725 4340 c-3 -5 -2 -10 4 -10 5 0 13 5 16 10 3 6 2 10 -4 10 -5 0
-13 -4 -16 -10z"/>
<path d="M2618 4323 c7 -3 16 -2 19 1 4 3 -2 6 -13 5 -11 0 -14 -3 -6 -6z"/>
<path d="M5298 11023 c7 -3 16 -2 19 1 4 3 -2 6 -13 5 -11 0 -14 -3 -6 -6z"/>
<path d="M2941 10664 c0 -11 3 -14 6 -6 3 7 2 16 -1 19 -3 4 -6 -2 -5 -13z"/>
<path d="M3000 10351 c0 -6 4 -13 10 -16 6 -3 7 1 4 9 -7 18 -14 21 -14 7z"/>
<path d="M3036 10267 c3 -10 9 -15 12 -12 3 3 0 11 -7 18 -10 9 -11 8 -5 -6z"/>
<path d="M3089 10202 c5 -10 18 -25 28 -33 12 -10 11 -5 -6 19 -24 35 -38 43
-22 14z"/>
<path d="M3254 10131 c7 -11 46 -35 46 -28 0 3 -12 12 -26 22 -15 9 -23 12
-20 6z"/>
<path d="M3204 10115 c16 -9 35 -23 42 -33 14 -18 19 -5 6 14 -9 14 -47 34
-64 34 -7 0 0 -7 16 -15z"/>
<path d="M5590 8926 c0 -2 7 -7 16 -10 8 -3 12 -2 9 4 -6 10 -25 14 -25 6z"/>
<path d="M5930 8886 c0 -2 8 -10 18 -17 15 -13 16 -12 3 4 -13 16 -21 21 -21
13z"/>
<path d="M5731 8814 c0 -11 3 -14 6 -6 3 7 2 16 -1 19 -3 4 -6 -2 -5 -13z"/>
<path d="M5750 8706 c0 -8 4 -17 9 -20 5 -4 7 3 4 14 -6 23 -13 26 -13 6z"/>
<path d="M5755 8020 c3 -5 8 -10 11 -10 2 0 4 5 4 10 0 6 -5 10 -11 10 -5 0
-7 -4 -4 -10z"/>
<path d="M5773 7975 c-3 -9 -3 -18 -1 -21 3 -3 8 4 11 16 6 23 -1 27 -10 5z"/>
<path d="M5785 7880 c3 -5 8 -10 11 -10 2 0 4 5 4 10 0 6 -5 10 -11 10 -5 0
-7 -4 -4 -10z"/>
<path d="M5825 7830 c3 -5 8 -10 11 -10 2 0 4 5 4 10 0 6 -5 10 -11 10 -5 0
-7 -4 -4 -10z"/>
<path d="M5881 7774 c0 -11 3 -14 6 -6 3 7 2 16 -1 19 -3 4 -6 -2 -5 -13z"/>
<path d="M5910 7781 c0 -6 4 -13 10 -16 6 -3 7 1 4 9 -7 18 -14 21 -14 7z"/>
<path d="M5890 7741 c0 -5 5 -13 10 -16 6 -3 10 -2 10 4 0 5 -4 13 -10 16 -5
3 -10 2 -10 -4z"/>
<path d="M2956 5744 c-5 -14 -4 -15 9 -4 17 14 19 20 6 20 -5 0 -12 -7 -15
-16z"/>
<path d="M2967 5699 c-10 -11 -16 -24 -13 -27 6 -6 35 27 36 41 0 11 -4 9 -23
-14z"/>
<path d="M2903 5646 c-13 -13 -20 -26 -16 -29 3 -4 15 5 25 19 26 32 19 39 -9
10z"/>
<path d="M2977 5653 c-4 -3 -7 -11 -7 -17 0 -6 5 -5 12 2 6 6 9 14 7 17 -3 3
-9 2 -12 -2z"/>
<path d="M2940 5626 c0 -9 5 -16 10 -16 6 0 10 4 10 9 0 6 -4 13 -10 16 -5 3
-10 -1 -10 -9z"/>
<path d="M3030 5629 c0 -5 5 -7 10 -4 6 3 10 8 10 11 0 2 -4 4 -10 4 -5 0 -10
-5 -10 -11z"/>
<path d="M3001 5610 c14 -31 19 -36 19 -24 0 6 -7 19 -16 30 -14 18 -14 18 -3
-6z"/>
<path d="M2351 5594 c0 -11 3 -14 6 -6 3 7 2 16 -1 19 -3 4 -6 -2 -5 -13z"/>
<path d="M2917 5603 c-4 -3 -7 -11 -7 -17 0 -6 5 -5 12 2 6 6 9 14 7 17 -3 3
-9 2 -12 -2z"/>
<path d="M2970 5580 c0 -5 5 -10 10 -10 6 0 10 5 10 10 0 6 -4 10 -10 10 -5 0
-10 -4 -10 -10z"/>
<path d="M2930 5572 c0 -7 7 -20 15 -28 19 -20 20 -4 0 22 -9 12 -14 14 -15 6z"/>
<path d="M3031 5564 c0 -11 3 -14 6 -6 3 7 2 16 -1 19 -3 4 -6 -2 -5 -13z"/>
<path d="M2885 5560 c3 -5 8 -10 11 -10 2 0 4 5 4 10 0 6 -5 10 -11 10 -5 0
-7 -4 -4 -10z"/>
<path d="M2990 5548 c0 -10 -4 -18 -10 -18 -5 0 -10 -8 -10 -17 0 -15 2 -14
15 3 15 19 15 19 30 0 8 -11 17 -18 19 -15 2 2 -7 18 -20 34 -18 23 -24 26
-24 13z"/>
<path d="M2905 5530 c-3 -5 -1 -10 4 -10 6 0 11 5 11 10 0 6 -2 10 -4 10 -3 0
-8 -4 -11 -10z"/>
<path d="M2860 5524 c0 -6 9 -19 20 -29 11 -10 20 -24 20 -32 0 -7 3 -13 6
-13 11 0 42 45 37 53 -3 5 -11 0 -18 -9 -12 -17 -14 -16 -38 12 -15 16 -27 24
-27 18z"/>
<path d="M2990 5479 c0 -5 5 -7 10 -4 6 3 10 8 10 11 0 2 -4 4 -10 4 -5 0 -10
-5 -10 -11z"/>
<path d="M2950 5473 c1 -14 30 -48 30 -34 0 7 -7 19 -15 27 -8 9 -15 12 -15 7z"/>
<path d="M2860 5450 c0 -5 5 -10 11 -10 5 0 7 5 4 10 -3 6 -8 10 -11 10 -2 0
-4 -4 -4 -10z"/>
<path d="M3002 5434 c-7 -8 -12 -19 -10 -23 2 -5 11 2 21 15 19 26 10 33 -11
8z"/>
<path d="M2925 5430 c-3 -5 -1 -10 4 -10 6 0 11 5 11 10 0 6 -2 10 -4 10 -3 0
-8 -4 -11 -10z"/>
<path d="M4236 5427 c3 -10 9 -15 12 -12 3 3 0 11 -7 18 -10 9 -11 8 -5 -6z"/>
<path d="M2837 5423 c-4 -3 -7 -11 -7 -17 0 -6 5 -5 12 2 6 6 9 14 7 17 -3 3
-9 2 -12 -2z"/>
<path d="M2881 5424 c-1 -18 26 -37 34 -24 3 5 0 10 -9 10 -8 0 -17 6 -19 13
-4 7 -6 8 -6 1z"/>
<path d="M2950 5400 c0 -5 5 -10 11 -10 5 0 7 5 4 10 -3 6 -8 10 -11 10 -2 0
-4 -4 -4 -10z"/>
<path d="M4211 5405 c1 -19 18 -51 18 -35 0 8 -4 22 -9 30 -5 8 -9 11 -9 5z"/>
<path d="M2845 5370 c-10 -11 -15 -23 -12 -26 4 -4 9 1 13 10 8 20 34 21 34 1
0 -8 7 -15 16 -15 14 0 14 1 0 16 -9 8 -16 20 -16 25 0 15 -16 10 -35 -11z"/>
<path d="M2920 5370 c0 -5 5 -10 10 -10 6 0 10 5 10 10 0 6 -4 10 -10 10 -5 0
-10 -4 -10 -10z"/>
<path d="M4271 5354 c0 -11 3 -14 6 -6 3 7 2 16 -1 19 -3 4 -6 -2 -5 -13z"/>
<path d="M4240 5355 c0 -5 5 -17 10 -25 5 -8 10 -10 10 -5 0 6 -5 17 -10 25
-5 8 -10 11 -10 5z"/>
<path d="M2935 5320 c-10 -11 -16 -22 -14 -24 2 -3 14 6 26 20 12 13 18 24 14
24 -4 0 -16 -9 -26 -20z"/>
<path d="M2833 5293 c-17 -21 -29 -42 -25 -47 3 -6 8 -4 10 4 3 8 16 26 29 39
20 22 29 41 20 41 -1 0 -17 -17 -34 -37z"/>
<path d="M4200 5326 c0 -4 9 -19 20 -33 11 -14 20 -21 20 -16 0 6 -9 20 -20
33 -11 13 -20 20 -20 16z"/>
<path d="M2928 5248 c-20 -23 -34 -45 -32 -48 3 -3 12 4 20 15 8 11 26 32 40
48 14 15 22 27 17 27 -5 0 -25 -19 -45 -42z"/>
<path d="M4250 5270 c0 -5 5 -10 10 -10 6 0 10 5 10 10 0 6 -4 10 -10 10 -5 0
-10 -4 -10 -10z"/>
<path d="M2860 5254 c0 -8 5 -12 10 -9 6 4 8 11 5 16 -9 14 -15 11 -15 -7z"/>
<path d="M4201 5243 c7 -10 15 -20 16 -22 2 -2 3 3 3 11 0 9 -7 19 -16 22 -15
6 -15 4 -3 -11z"/>
<path d="M2830 5220 c0 -6 -11 -23 -25 -38 -27 -29 -32 -44 -12 -37 6 3 21 20
32 38 27 45 28 47 16 47 -6 0 -11 -5 -11 -10z"/>
<path d="M2870 5170 c0 -5 5 -10 10 -10 6 0 10 5 10 10 0 6 -4 10 -10 10 -5 0
-10 -4 -10 -10z"/>
<path d="M2830 5152 c0 -10 22 -32 32 -32 12 0 -2 28 -18 34 -8 3 -14 2 -14
-2z"/>
<path d="M2812 5093 c-8 -18 -9 -30 -2 -37 7 -7 10 -3 10 12 0 24 15 30 23 10
3 -7 6 -8 6 -2 1 5 -5 18 -11 27 -12 15 -14 14 -26 -10z"/>
<path d="M2883 5094 c-3 -10 -11 -22 -16 -25 -5 -4 -7 -13 -5 -20 3 -9 11 -1
22 19 10 19 15 36 12 39 -3 3 -9 -3 -13 -13z"/>
<path d="M2902 5025 c-13 -26 -17 -47 -12 -50 6 -3 10 1 10 10 0 9 7 30 16 46
8 17 14 33 12 35 -2 2 -14 -16 -26 -41z"/>
<path d="M2773 5053 c-15 -5 -18 -33 -4 -33 8 0 25 30 19 35 -2 1 -9 0 -15 -2z"/>
<path d="M2940 5042 c0 -5 12 -19 27 -33 l27 -24 -23 33 c-23 32 -31 39 -31
24z"/>
<path d="M2839 5038 c-7 -23 -5 -39 5 -47 10 -8 11 -3 8 19 -4 25 -10 38 -13
28z"/>
<path d="M2926 4995 c4 -8 10 -15 15 -15 4 0 6 7 3 15 -4 8 -10 15 -15 15 -4
0 -6 -7 -3 -15z"/>
<path d="M2800 4991 c0 -6 5 -13 10 -16 6 -3 10 1 10 9 0 9 -4 16 -10 16 -5 0
-10 -4 -10 -9z"/>
<path d="M2860 4959 c0 -6 -6 -9 -14 -6 -10 4 -12 0 -9 -14 6 -22 23 -26 23
-4 0 22 18 18 25 -5 8 -25 -3 -43 -21 -36 -8 3 -14 -1 -14 -9 0 -20 15 -19 35
2 14 13 18 14 25 3 4 -7 6 -20 3 -29 -4 -13 -3 -13 6 1 9 13 5 26 -16 62 -27
44 -43 57 -43 35z"/>
<path d="M2953 4958 c0 -7 -4 -22 -7 -33 -5 -13 -2 -12 8 5 17 29 20 40 8 40
-5 0 -9 -6 -9 -12z"/>
<path d="M2916 4945 c4 -8 8 -15 10 -15 2 0 4 7 4 15 0 8 -4 15 -10 15 -5 0
-7 -7 -4 -15z"/>
<path d="M2988 4950 c-3 -9 3 -26 13 -39 11 -13 19 -19 19 -14 0 5 -4 13 -9
19 -5 5 -11 18 -13 29 -3 16 -5 17 -10 5z"/>
<path d="M2971 4898 c0 -7 4 -22 9 -33 7 -16 8 -14 7 12 -1 18 -5 33 -9 33 -5
0 -8 -6 -7 -12z"/>
<path d="M2940 4860 c1 -8 7 -24 15 -34 19 -25 19 -16 0 20 -8 16 -15 22 -15
14z"/>
<path d="M2881 4834 c0 -11 3 -14 6 -6 3 7 2 16 -1 19 -3 4 -6 -2 -5 -13z"/>
<path d="M3001 4834 c0 -11 3 -14 6 -6 3 7 2 16 -1 19 -3 4 -6 -2 -5 -13z"/>
<path d="M2842 4818 c-8 -8 -8 -17 -1 -30 6 -11 9 -21 7 -22 -2 -1 -17 -9 -34
-17 l-32 -15 20 -34 c17 -32 18 -32 13 -8 -4 20 1 33 17 48 12 11 25 20 30 20
4 0 3 9 -4 20 -11 17 -10 22 1 29 7 5 9 11 4 14 -6 4 -15 1 -21 -5z"/>
<path d="M2911 4807 c-13 -21 -12 -21 5 -5 10 10 16 20 13 22 -3 3 -11 -5 -18
-17z"/>
<path d="M3020 4823 c0 -5 5 -15 10 -23 8 -12 10 -11 10 8 0 12 -4 22 -10 22
-5 0 -10 -3 -10 -7z"/>
<path d="M2930 4790 c0 -5 5 -10 10 -10 6 0 10 5 10 10 0 6 -4 10 -10 10 -5 0
-10 -4 -10 -10z"/>
<path d="M2970 4789 c0 -5 5 -7 10 -4 6 3 10 8 10 11 0 2 -4 4 -10 4 -5 0 -10
-5 -10 -11z"/>
<path d="M3001 4780 c0 -8 4 -22 9 -30 9 -13 11 -13 20 0 5 8 9 20 9 25 0 6
-3 4 -6 -2 -7 -18 -21 -16 -26 5 -3 12 -5 13 -6 2z"/>
<path d="M2895 4722 c0 -27 3 -36 10 -29 11 11 8 67 -4 67 -3 0 -6 -17 -6 -38z"/>
<path d="M3052 4738 c-14 -14 -16 -28 -3 -28 9 0 24 30 18 36 -2 2 -9 -2 -15
-8z"/>
<path d="M2863 4724 c-16 -16 -17 -64 -2 -64 6 0 9 10 8 23 -2 12 0 28 5 35
11 19 4 23 -11 6z"/>
<path d="M2917 4673 c-4 -3 -7 -11 -7 -17 0 -6 5 -5 12 2 6 6 9 14 7 17 -3 3
-9 2 -12 -2z"/>
<path d="M2803 4646 c-24 -11 -29 -21 -14 -30 4 -3 19 6 31 19 25 26 20 30
-17 11z"/>
<path d="M2745 4630 c-16 -7 -17 -9 -3 -9 9 -1 20 4 23 9 7 11 7 11 -20 0z"/>
<path d="M2907 4621 c-4 -17 -2 -18 14 -8 22 14 25 27 5 27 -7 0 -16 -9 -19
-19z"/>
<path d="M2800 4600 c-9 -6 -10 -10 -3 -10 6 0 15 5 18 10 8 12 4 12 -15 0z"/>
<path d="M2740 4539 c0 -5 5 -7 10 -4 6 3 10 8 10 11 0 2 -4 4 -10 4 -5 0 -10
-5 -10 -11z"/>
</g>
</svg>
