<?xml version="1.0" standalone="no"?>
<!DOCTYPE svg PUBLIC "-//W3C//DTD SVG 20010904//EN"
 "http://www.w3.org/TR/2001/REC-SVG-20010904/DTD/svg10.dtd">
<svg version="1.0" xmlns="http://www.w3.org/2000/svg"
 width="989.000000pt" height="1280.000000pt" viewBox="0 0 989.000000 1280.000000"
 preserveAspectRatio="xMidYMid meet">
<metadata>
Created by potrace 1.15, written by Peter Selinger 2001-2017
</metadata>
<g transform="translate(0.000000,1280.000000) scale(0.100000,-0.100000)"
fill="#000000" stroke="none">
<path d="M4380 12489 c-99 -8 -186 -28 -235 -52 -89 -43 -203 -118 -249 -164
-28 -26 -46 -42 -42 -35 16 27 -12 10 -49 -30 -22 -24 -28 -32 -13 -19 16 14
29 23 31 20 2 -2 -12 -17 -32 -34 -19 -16 -32 -24 -27 -17 11 19 -9 14 -27 -6
-10 -10 -14 -22 -10 -26 5 -4 1 -6 -7 -4 -8 2 -14 -3 -12 -10 1 -6 -2 -11 -8
-10 -5 2 -25 -15 -44 -37 -38 -42 -48 -67 -18 -44 14 11 13 10 -2 -9 -21 -24
-31 -29 -21 -9 16 31 -32 -37 -85 -122 -41 -67 -64 -117 -80 -178 -13 -46 -26
-79 -30 -74 -3 6 -16 -58 -29 -142 -13 -83 -33 -201 -44 -262 -11 -60 -20
-122 -20 -137 0 -15 -4 -25 -10 -21 -5 3 -6 -7 -2 -27 6 -25 4 -31 -6 -25 -9
6 -11 3 -6 -9 4 -9 0 -49 -8 -88 -18 -85 -44 -366 -49 -534 -5 -139 -14 -214
-28 -214 -5 0 -7 4 -4 8 3 5 1 22 -4 38 -8 23 -9 17 -5 -29 4 -41 1 -66 -11
-88 -8 -17 -13 -33 -10 -37 3 -3 -1 -16 -9 -29 -9 -13 -13 -23 -9 -23 4 0 1
-6 -5 -14 -6 -7 -9 -20 -6 -27 6 -16 -52 -92 -65 -84 -4 3 -14 -3 -21 -13 -13
-15 -12 -16 4 -3 10 8 17 9 17 3 0 -6 -5 -14 -10 -17 -6 -4 -7 -11 -4 -17 4
-6 2 -8 -3 -5 -6 4 -28 -11 -49 -33 -43 -44 -54 -45 -29 -3 l17 28 -25 -29
c-13 -15 -27 -24 -29 -20 -3 5 -3 3 -2 -4 2 -6 -14 -37 -36 -68 -22 -31 -37
-62 -33 -68 3 -6 2 -8 -2 -3 -8 7 -65 -73 -65 -92 0 -5 -8 -15 -17 -22 -16
-12 -17 -12 -7 1 5 8 16 29 22 45 l13 30 -21 -25 c-11 -14 -20 -29 -20 -34 0
-4 -16 -35 -36 -67 -19 -32 -37 -67 -39 -79 -5 -28 -15 -41 -25 -35 -11 7 -57
-60 -99 -142 -46 -92 -37 -91 12 2 49 93 78 137 84 131 3 -2 -7 -25 -22 -50
-15 -25 -28 -56 -30 -68 -2 -13 -14 -51 -28 -86 -14 -34 -40 -133 -57 -220
-17 -86 -39 -188 -49 -227 -17 -65 -19 -68 -23 -35 -4 31 -5 30 -6 -12 -1 -26
-8 -67 -16 -90 -34 -103 -46 -160 -46 -213 0 -48 2 -56 16 -51 12 5 15 2 9
-11 -16 -41 -85 -237 -85 -242 0 -2 6 4 14 15 8 10 17 17 19 14 3 -3 -6 -66
-19 -140 -22 -126 -33 -178 -70 -306 -8 -28 -14 -65 -14 -83 0 -18 -6 -44 -14
-59 -8 -15 -13 -49 -12 -77 1 -42 4 -50 19 -47 10 2 17 -3 17 -12 0 -9 16 0
41 25 24 23 44 36 48 31 14 -23 48 -4 89 51 52 67 68 77 21 12 -18 -25 -29
-48 -25 -52 4 -4 12 0 17 9 22 40 61 77 74 71 8 -3 12 -10 9 -15 -4 -6 -1 -14
7 -18 9 -6 14 -39 17 -104 3 -54 9 -96 14 -96 6 0 8 -10 5 -22 -3 -11 0 -33 8
-47 12 -23 10 -43 -11 -156 -13 -71 -35 -179 -49 -239 -13 -61 -36 -178 -50
-261 -13 -82 -39 -199 -56 -260 -17 -60 -53 -202 -80 -315 -45 -185 -97 -383
-194 -735 -18 -67 -59 -179 -90 -250 -30 -72 -78 -192 -105 -267 -68 -193
-103 -252 -192 -323 -89 -72 -151 -136 -185 -193 -14 -24 -48 -109 -74 -190
-65 -194 -77 -302 -60 -517 7 -85 10 -159 7 -163 -13 -22 29 -203 89 -380 72
-213 92 -258 171 -379 244 -376 760 -622 1202 -573 239 26 435 114 671 298 53
42 188 143 301 225 112 82 305 226 427 321 154 118 239 176 273 188 34 11 48
13 44 5 -35 -61 -259 -342 -364 -457 -202 -222 -250 -290 -289 -407 -29 -85
-28 -170 2 -214 54 -80 163 -132 419 -199 155 -41 379 -123 534 -195 97 -45
157 -83 295 -187 171 -129 306 -172 489 -156 42 4 41 7 15 -137 -25 -136 -25
-269 -1 -314 51 -95 150 -140 391 -176 155 -23 478 -96 695 -156 393 -110 472
-128 548 -129 46 0 84 6 102 15 34 18 58 11 114 -34 51 -41 114 -43 152 -6 21
21 28 23 48 13 35 -15 72 -3 92 31 16 28 19 28 40 14 13 -8 40 -15 60 -16 29
-1 42 5 65 31 17 19 34 29 43 26 25 -10 86 26 93 55 4 14 6 31 5 37 -1 6 11
17 28 24 49 20 90 74 90 118 -1 49 -24 76 -85 96 -137 45 -246 95 -329 149
-82 54 -369 197 -496 247 -181 71 -406 223 -535 361 -62 66 -90 110 -115 183
-38 113 -38 143 16 761 28 324 43 451 80 670 20 117 109 556 139 681 12 52
365 257 637 369 187 78 276 134 388 245 103 102 153 181 185 294 42 144 -14
482 -112 684 -40 80 -151 207 -244 279 l-50 38 7 65 c3 36 10 69 15 74 5 6 9
42 9 80 0 58 -9 95 -45 200 -55 158 -75 193 -162 278 -83 83 -175 146 -226
154 -28 5 -36 11 -33 23 3 9 8 39 11 66 4 28 15 104 25 170 42 265 49 506 19
725 -15 105 -81 405 -134 600 -49 182 -72 302 -140 710 -25 151 -64 358 -86
460 -21 101 -48 236 -59 300 -11 63 -24 130 -29 148 -27 91 -111 183 -264 287
-70 47 -116 69 -239 111 -84 29 -199 69 -255 89 l-103 37 0 42 c0 54 -55 316
-81 385 -11 30 -35 82 -53 115 -18 34 -46 91 -61 128 -15 37 -31 65 -36 62 -9
-5 -54 134 -46 142 3 3 13 -19 22 -48 10 -29 24 -60 32 -68 11 -12 11 -8 -2
22 -18 44 -20 71 -4 48 9 -12 10 -11 4 5 -24 71 -55 206 -56 240 0 29 -3 35
-8 21 -10 -26 -14 -14 -36 104 -24 134 -48 227 -53 211 -3 -10 -9 -7 -19 10
l-14 24 6 -25 c5 -21 4 -22 -5 -7 -6 9 -8 21 -5 27 3 5 -10 33 -28 62 -19 29
-37 70 -40 91 -3 21 -14 53 -24 72 -10 18 -34 64 -55 102 -20 37 -54 84 -75
105 -49 47 -155 103 -218 116 -28 6 -59 14 -69 18 -14 5 -17 4 -11 -5 6 -10 3
-11 -16 -1 -22 12 -121 38 -169 44 -14 2 -28 4 -32 5 -4 0 -41 34 -82 75 -83
82 -114 97 -251 115 -118 16 -162 18 -245 10z m1369 -974 c0 -11 -7 0 -15 25
-17 56 -17 64 1 25 8 -16 14 -39 14 -50z m8 -62 c-3 -10 -5 -4 -5 12 0 17 2
24 5 18 2 -7 2 -21 0 -30z m-2457 -1183 c0 -63 -15 -60 -17 2 -1 39 2 56 8 47
5 -8 9 -30 9 -49z m-44 -116 c-4 -14 -9 -24 -12 -21 -3 2 -2 17 2 31 3 15 9
25 11 22 3 -3 2 -17 -1 -32z m14 -58 c0 -7 -11 -25 -25 -40 -14 -15 -25 -23
-25 -18 0 5 7 15 15 22 17 14 21 35 4 24 -8 -4 -7 0 1 15 11 22 30 20 30 -3z
m-64 -22 c-4 -9 -9 -15 -11 -12 -3 3 -3 13 1 22 4 9 9 15 11 12 3 -3 3 -13 -1
-22z m45 -72 c-37 -43 -40 -47 -64 -85 -10 -16 -21 -26 -24 -23 -3 3 21 41 53
84 33 43 61 75 62 70 2 -5 -10 -25 -27 -46z m-47 3 c-4 -8 -11 -15 -16 -15 -6
0 -5 6 2 15 7 8 14 15 16 15 2 0 1 -7 -2 -15z m-173 -228 c-19 -18 -30 -25
-26 -17 13 25 48 60 54 55 3 -3 -10 -20 -28 -38z m2316 -89 c-3 -7 -5 -2 -5
12 0 14 2 19 5 13 2 -7 2 -19 0 -25z m-2337 -71 c0 -2 -10 -12 -22 -23 l-23
-19 19 23 c18 21 26 27 26 19z m2317 -29 c-3 -8 -6 -5 -6 6 -1 11 2 17 5 13 3
-3 4 -12 1 -19z m934 3 c67 -5 80 -10 114 -40 21 -18 53 -40 71 -47 41 -17 43
-29 50 -279 5 -176 2 -238 -25 -517 -17 -174 -43 -399 -57 -500 -14 -100 -28
-247 -31 -325 -3 -79 -8 -143 -10 -143 -2 0 -27 20 -57 44 -29 24 -99 76 -155
115 -55 40 -101 78 -101 85 0 8 -3 29 -6 47 -6 33 -6 33 11 14 16 -19 16 -19
11 11 -3 18 -8 85 -11 150 -4 66 -11 133 -16 151 -6 17 -12 55 -14 85 -4 66
-37 189 -70 264 -24 54 -34 144 -17 144 5 0 21 -40 36 -90 16 -49 35 -97 43
-107 11 -15 11 -11 -1 20 -21 53 -49 167 -43 174 3 3 13 -21 22 -53 9 -33 28
-81 41 -108 13 -28 24 -64 25 -80 0 -17 7 -49 15 -71 l14 -40 -5 66 c-5 67
-31 159 -44 159 -4 0 -8 6 -8 13 -2 23 -50 197 -56 204 -4 4 -5 29 -2 57 4 38
3 46 -5 31 -8 -16 -9 -13 -4 15 3 19 8 43 11 54 3 13 1 16 -7 11 -9 -5 -10 5
-5 41 9 61 24 92 25 50 0 -42 7 -29 13 27 3 26 2 47 -2 47 -13 0 -20 72 -9 93
5 10 10 37 10 60 1 23 6 48 11 55 19 24 57 105 57 120 0 12 10 13 53 7 28 -4
86 -10 128 -14z m-3411 -51 c-11 -16 -26 -33 -33 -37 -12 -7 0 11 32 50 23 28
24 20 1 -13z m-56 -95 c-14 -19 -29 -35 -31 -35 -5 0 7 18 36 53 26 31 23 18
-5 -18z m-59 -335 c-4 -12 -9 -19 -12 -17 -3 3 -2 15 2 27 4 12 9 19 12 17 3
-3 2 -15 -2 -27z m-178 -282 c-3 -8 -6 -5 -6 6 -1 11 2 17 5 13 3 -3 4 -12 1
-19z m3263 -228 c0 -13 -1 -13 -10 0 -5 8 -10 22 -10 30 0 13 1 13 10 0 5 -8
10 -22 10 -30z m127 -292 c-3 -8 -6 -5 -6 6 -1 11 2 17 5 13 3 -3 4 -12 1 -19z
m26 -118 c14 -41 37 -104 51 -139 14 -36 25 -66 23 -67 -2 -2 -28 13 -59 33
-52 34 -56 39 -60 82 -6 62 3 185 12 174 4 -4 19 -42 33 -83z m-212 -5560 c4
-126 19 -359 33 -517 28 -328 36 -483 26 -483 -22 0 -160 88 -284 181 -193
145 -402 364 -421 441 -18 70 50 152 250 305 66 50 179 140 250 201 72 60 132
108 134 106 2 -2 8 -107 12 -234z"/>
<path d="M6037 9403 c-9 -26 -14 -49 -12 -51 1 -2 11 17 20 43 10 25 16 48 13
51 -3 2 -12 -17 -21 -43z"/>
<path d="M6042 8610 c0 -14 2 -19 5 -12 2 6 2 18 0 25 -3 6 -5 1 -5 -13z"/>
<path d="M3421 11664 c0 -11 3 -14 6 -6 3 7 2 16 -1 19 -3 4 -6 -2 -5 -13z"/>
<path d="M5802 11450 c0 -14 2 -19 5 -12 2 6 2 18 0 25 -3 6 -5 1 -5 -13z"/>
<path d="M5812 11395 c0 -16 2 -22 5 -12 2 9 2 23 0 30 -3 6 -5 -1 -5 -18z"/>
<path d="M5891 11045 c0 -5 6 -21 14 -35 8 -14 14 -20 14 -15 0 6 -6 21 -14
35 -8 14 -14 21 -14 15z"/>
<path d="M6047 10795 c9 -19 18 -33 21 -31 4 5 -26 66 -33 66 -3 0 3 -16 12
-35z"/>
<path d="M3134 9958 c-4 -7 -14 -23 -22 -35 -8 -13 -12 -23 -9 -23 9 0 50 61
44 66 -3 3 -8 -1 -13 -8z"/>
<path d="M3059 9903 c-13 -16 -12 -17 4 -4 9 7 17 15 17 17 0 8 -8 3 -21 -13z"/>
<path d="M2927 9763 c-4 -3 -7 -11 -7 -17 0 -6 5 -5 12 2 6 6 9 14 7 17 -3 3
-9 2 -12 -2z"/>
<path d="M2546 9089 c-4 -23 -5 -44 -2 -46 2 -2 7 14 11 37 4 23 5 43 2 46 -2
3 -7 -14 -11 -37z"/>
<path d="M2532 9010 c0 -14 2 -19 5 -12 2 6 2 18 0 25 -3 6 -5 1 -5 -13z"/>
</g>
</svg>
